<svg width="100" height="100" viewBox="0 0 100 100" fill="none" xmlns="http://www.w3.org/2000/svg"><g clip-path="url(#a)"><path d="M9.38 9.38h3.12v3.12H9.37V9.37Z" fill="url(#b)"/><path d="M9.38 15.63h3.12v3.12H9.37v-3.13Z" fill="url(#c)"/><path d="M87.5 81.25h3.13v3.13H87.5v-3.13Z" fill="url(#d)"/><path d="M87.5 87.5h3.13v3.13H87.5V87.5Z" fill="url(#e)"/><path d="M84.38 71.88H60.94a4.69 4.69 0 0 0-4.69 4.68v4.69h-9.38v3.13H19.54a16.4 16.4 0 0 1 0-32.82h60.94a19.53 19.53 0 0 0 0-39.06H53.13V9.37h-9.38V4.7c0-2.6-2.1-4.69-4.69-4.69H15.62v3.13H0V25h15.63v3.13h23.43c2.6 0 4.69-2.1 4.69-4.7v-4.68h9.38v-3.13h27.34a16.4 16.4 0 0 1 0 32.82H19.53a19.53 19.53 0 0 0 0 39.06h27.34v3.13h9.38v4.68c0 2.6 2.1 4.69 4.69 4.69h23.44v-3.13H100V75H84.37v-3.13Zm-68.75-50H3.13V6.24h12.5v15.63Zm25-12.5v14.06c0 .86-.7 1.56-1.57 1.56H18.75V3.12h20.31c.87 0 1.56.7 1.56 1.57v4.68ZM50 15.62h-6.25V12.5H50v3.13Zm6.25 71.88H50v-3.13h6.25v3.13Zm25 9.38H60.94c-.87 0-1.56-.7-1.56-1.57V76.56c0-.86.7-1.56 1.56-1.56h20.31v21.88Zm15.63-18.75v15.62h-12.5V78.12h12.5Z" fill="url(#f)"/></g><defs><linearGradient id="b" x1="9.69" y1="9.38" x2="12.39" y2="9.58" gradientUnits="userSpaceOnUse"><stop stop-color="#C89AFC"/><stop offset="1" stop-color="#7C6AFA"/></linearGradient><linearGradient id="c" x1="9.69" y1="15.63" x2="12.39" y2="15.83" gradientUnits="userSpaceOnUse"><stop stop-color="#C89AFC"/><stop offset="1" stop-color="#7C6AFA"/></linearGradient><linearGradient id="d" x1="87.82" y1="81.25" x2="90.51" y2="81.45" gradientUnits="userSpaceOnUse"><stop stop-color="#C89AFC"/><stop offset="1" stop-color="#7C6AFA"/></linearGradient><linearGradient id="e" x1="87.82" y1="87.5" x2="90.51" y2="87.7" gradientUnits="userSpaceOnUse"><stop stop-color="#C89AFC"/><stop offset="1" stop-color="#7C6AFA"/></linearGradient><linearGradient id="f" x1="10.22" y1="0" x2="96.48" y2="6.43" gradientUnits="userSpaceOnUse"><stop stop-color="#C89AFC"/><stop offset="1" stop-color="#7C6AFA"/></linearGradient><clipPath id="a"><path fill="#fff" d="M0 0h100v100H0z"/></clipPath></defs></svg>