<svg width="100" height="100" viewBox="0 0 100 100" fill="none" xmlns="http://www.w3.org/2000/svg"><path d="M9.38 20.31H6.25V12.5h7.81v3.13H9.37v4.68Z" fill="url(#a)"/><path d="M65.63 81.25H62.5v-3.13h3.13v3.13Zm-6.25 0h-3.13v-3.13h3.13v3.13Zm-6.26 0H50v-3.13h3.13v3.13Zm-6.24 0h-3.13v-3.13h3.13v3.13Zm-6.26 0H37.5v-3.13h3.13v3.13Zm-6.24 0h-3.13v-3.13h3.13v3.13Zm-6.26 0H25v-3.13h3.13v3.13Zm-6.25 0h-3.12v-3.13h3.13v3.13Zm-6.25 0H12.5v-3.13h3.13v3.13Zm-6.24 0H6.25v-3.13h3.13v3.13Z" fill="url(#b)"/><path d="M65.63 87.5H62.5v-3.13h3.13v3.13Zm-6.25 0h-3.13v-3.13h3.13v3.13Zm-6.26 0H50v-3.13h3.13v3.13Zm-6.24 0h-3.13v-3.13h3.13v3.13Zm-6.26 0H37.5v-3.13h3.13v3.13Zm-6.24 0h-3.13v-3.13h3.13v3.13Zm-6.26 0H25v-3.13h3.13v3.13Zm-6.25 0h-3.12v-3.13h3.13v3.13Zm-6.25 0H12.5v-3.13h3.13v3.13Zm-6.24 0H6.25v-3.13h3.13v3.13Z" fill="url(#c)"/><path d="M81.25 12.5h12.5v3.13h-12.5V12.5Z" fill="url(#d)"/><path d="M81.25 18.75h12.5v3.13h-12.5v-3.13Z" fill="url(#e)"/><path d="M81.25 25h12.5v3.13h-12.5V25Z" fill="url(#f)"/><path d="M65.63 34.38H57.8v-3.13h4.69v-4.69h3.13v7.82Z" fill="url(#g)"/><path d="M95.31 6.25H79.7A4.69 4.69 0 0 0 75 10.94v54.69h25v-54.7c0-2.58-2.1-4.68-4.69-4.68Zm1.56 56.25H78.13V10.94c0-.87.7-1.56 1.57-1.56H95.3c.87 0 1.56.7 1.56 1.56V62.5Z" fill="url(#h)"/><path d="M67.19 71.88H4.69A4.69 4.69 0 0 0 0 76.56v12.5c0 2.6 2.1 4.69 4.69 4.69h62.5c2.59 0 4.69-2.1 4.69-4.69v-12.5c0-2.59-2.1-4.69-4.7-4.69Zm1.56 17.18c0 .87-.7 1.56-1.56 1.56H4.69c-.87 0-1.57-.7-1.57-1.56v-12.5c0-.86.7-1.56 1.57-1.56h62.5c.86 0 1.56.7 1.56 1.56v12.5Z" fill="url(#i)"/><path d="M85.94 71.88c-4.32 0-7.81 3.5-7.81 7.8v6.26a7.81 7.81 0 0 0 15.62 0v-6.25c0-4.32-3.5-7.81-7.81-7.81Zm4.69 14.06a4.69 4.69 0 0 1-9.38 0v-6.25a4.69 4.69 0 0 1 3.13-4.4v5.96h3.12v-5.96a4.69 4.69 0 0 1 3.13 4.4v6.25Z" fill="url(#j)"/><path d="M67.19 6.25H4.69A4.69 4.69 0 0 0 0 10.94v37.5c0 2.59 2.1 4.69 4.69 4.69h21.87v6.5a2.87 2.87 0 0 1-2.86 2.87h-4.95v3.13H50V62.5h-4.95a2.87 2.87 0 0 1-2.86-2.86v-6.52h25c2.59 0 4.69-2.1 4.69-4.68v-37.5c0-2.6-2.1-4.69-4.7-4.69ZM28.96 62.5c.48-.88.73-1.86.73-2.86v-6.52h3.12v6.65h3.13v-6.65h3.12v6.52c0 1 .25 1.98.73 2.86H28.96Zm39.79-14.06c0 .86-.7 1.56-1.56 1.56H4.69c-.87 0-1.57-.7-1.57-1.56v-7.81h65.63v7.8Zm0-10.94H3.12V10.94c0-.87.7-1.56 1.57-1.56h62.5c.86 0 1.56.7 1.56 1.56V37.5Z" fill="url(#k)"/><path d="M89.06 47.1v-3.35h-3.12v3.35a6.25 6.25 0 1 0 3.12 0Zm-1.56 9.15a3.11 3.11 0 0 1-1.56-5.82v2.7h3.12v-2.7a3.12 3.12 0 0 1-1.56 5.82Z" fill="url(#l)"/><path d="M32.81 43.75h3.13v3.13H32.8v-3.13Z" fill="url(#m)"/><defs><linearGradient id="a" x1="7.05" y1="12.5" x2="13.79" y2="13" gradientUnits="userSpaceOnUse"><stop stop-color="#C89AFC"/><stop offset="1" stop-color="#7C6AFA"/></linearGradient><linearGradient id="b" x1="12.32" y1="78.13" x2="29.45" y2="102.39" gradientUnits="userSpaceOnUse"><stop stop-color="#C89AFC"/><stop offset="1" stop-color="#7C6AFA"/></linearGradient><linearGradient id="c" x1="12.32" y1="84.38" x2="29.45" y2="108.64" gradientUnits="userSpaceOnUse"><stop stop-color="#C89AFC"/><stop offset="1" stop-color="#7C6AFA"/></linearGradient><linearGradient id="d" x1="82.53" y1="12.5" x2="92.48" y2="15.47" gradientUnits="userSpaceOnUse"><stop stop-color="#C89AFC"/><stop offset="1" stop-color="#7C6AFA"/></linearGradient><linearGradient id="e" x1="82.53" y1="18.75" x2="92.48" y2="21.72" gradientUnits="userSpaceOnUse"><stop stop-color="#C89AFC"/><stop offset="1" stop-color="#7C6AFA"/></linearGradient><linearGradient id="f" x1="82.53" y1="25" x2="92.48" y2="27.97" gradientUnits="userSpaceOnUse"><stop stop-color="#C89AFC"/><stop offset="1" stop-color="#7C6AFA"/></linearGradient><linearGradient id="g" x1="58.61" y1="26.56" x2="65.35" y2="27.06" gradientUnits="userSpaceOnUse"><stop stop-color="#C89AFC"/><stop offset="1" stop-color="#7C6AFA"/></linearGradient><linearGradient id="h" x1="77.56" y1="6.25" x2="99.22" y2="6.93" gradientUnits="userSpaceOnUse"><stop stop-color="#C89AFC"/><stop offset="1" stop-color="#7C6AFA"/></linearGradient><linearGradient id="i" x1="7.35" y1="71.88" x2="66.16" y2="86.28" gradientUnits="userSpaceOnUse"><stop stop-color="#C89AFC"/><stop offset="1" stop-color="#7C6AFA"/></linearGradient><linearGradient id="j" x1="79.72" y1="71.88" x2="93.24" y2="72.59" gradientUnits="userSpaceOnUse"><stop stop-color="#C89AFC"/><stop offset="1" stop-color="#7C6AFA"/></linearGradient><linearGradient id="k" x1="7.35" y1="6.25" x2="69.18" y2="11.83" gradientUnits="userSpaceOnUse"><stop stop-color="#C89AFC"/><stop offset="1" stop-color="#7C6AFA"/></linearGradient><linearGradient id="l" x1="82.53" y1="43.75" x2="93.33" y2="44.39" gradientUnits="userSpaceOnUse"><stop stop-color="#C89AFC"/><stop offset="1" stop-color="#7C6AFA"/></linearGradient><linearGradient id="m" x1="33.13" y1="43.75" x2="35.83" y2="43.95" gradientUnits="userSpaceOnUse"><stop stop-color="#C89AFC"/><stop offset="1" stop-color="#7C6AFA"/></linearGradient></defs></svg>