<svg width="40" height="40" viewBox="0 0 40 40" fill="none" xmlns="http://www.w3.org/2000/svg"><path d="m39.9 37.39-1.7-6a5.38 5.38 0 0 1 .21-3.57A19.92 19.92 0 0 0 40 19.27 20 20 0 1 0 26.82 38.8c1.87-.67 3.9-.79 5.8-.25l4.76 1.36a2.04 2.04 0 0 0 2.52-2.52ZM11.06 20a8.94 8.94 0 1 1 17.88 0 8.94 8.94 0 0 1-17.88 0Z" fill="url(#a)"/><path d="m37.9 29.02-.22-.62c-1.06-3.02-6.24-16.08-16.48-17.25A8.93 8.93 0 0 1 20 28.94V40c2.4 0 4.7-.42 6.82-1.2 1.87-.67 3.9-.79 5.8-.24l4.76 1.35a2.04 2.04 0 0 0 2.52-2.52l-1.7-6c-.2-.7-.25-1.43-.16-2.15l-.15-.22Z" fill="url(#b)"/><defs><linearGradient id="a" x1="4.85" y1="0" x2="40.38" y2="2.97" gradientUnits="userSpaceOnUse"><stop stop-color="#DF5950"/><stop offset="1" stop-color="#451046"/></linearGradient><linearGradient id="b" x1="22.42" y1="11.15" x2="40.23" y2="12.18" gradientUnits="userSpaceOnUse"><stop stop-color="#DF5950"/><stop offset="1" stop-color="#451046"/></linearGradient></defs></svg>