<svg width="24" height="24" viewBox="0 0 24 24" fill="none" xmlns="http://www.w3.org/2000/svg"><g clip-path="url(#a)" fill="#fff"><path d="M16.5 0h-9A7.5 7.5 0 0 0 0 7.5v9A7.5 7.5 0 0 0 7.5 24h9a7.5 7.5 0 0 0 7.5-7.5v-9A7.5 7.5 0 0 0 16.5 0Zm5.25 16.5c0 2.9-2.36 5.25-5.25 5.25h-9a5.26 5.26 0 0 1-5.25-5.25v-9c0-2.9 2.36-5.25 5.25-5.25h9c2.9 0 5.25 2.36 5.25 5.25v9Z"/><path d="M12 6a6 6 0 1 0 0 12 6 6 0 0 0 0-12Zm0 9.75a3.76 3.76 0 1 1 .01-7.51 3.76 3.76 0 0 1-.01 7.51ZM18.45 6.35a.8.8 0 1 0 0-1.6.8.8 0 0 0 0 1.6Z"/></g><defs><clipPath id="a"><path fill="#fff" d="M0 0h24v24H0z"/></clipPath></defs></svg>