<svg width="24" height="24" viewBox="0 0 24 24" fill="" xmlns="http://www.w3.org/2000/svg"><g clip-path="url(#a)"><path fill-rule="evenodd" clip-rule="evenodd" d="M21.36 14.76a20.35 20.35 0 0 0 2.44 2.84c.2.33.25.59.15.78-.16.31-.7.47-.9.48h-3.42a2.4 2.4 0 0 1-1.34-.48 8.32 8.32 0 0 1-1.37-1.37c-.67-.78-1.24-1.44-1.82-1.44a.66.66 0 0 0-.22.03c-.44.14-1 .77-1 2.44 0 .52-.41.82-.7.82h-1.57c-.54 0-3.32-.19-5.8-2.8C2.8 12.89.08 6.49.05 6.43c-.17-.41.19-.64.57-.64h3.47c.46 0 .61.28.72.54.12.29.57 1.44 1.32 2.74 1.2 2.12 1.94 2.98 2.53 2.98.12 0 .22-.03.32-.09.77-.42.63-3.18.6-3.75 0-.11 0-1.23-.4-1.78a1.7 1.7 0 0 0-1.06-.59c.08-.11.24-.29.46-.39.52-.26 1.48-.3 2.43-.3h.53c1.03.01 1.3.08 1.67.17.75.18.77.67.7 2.34-.02.47-.04 1-.04 1.64v.43c-.03.86-.06 1.82.54 2.21a.5.5 0 0 0 .26.08c.21 0 .84 0 2.53-2.91.75-1.29 1.32-2.8 1.36-2.92a.87.87 0 0 1 .26-.31.57.57 0 0 1 .28-.07h4.08c.44 0 .74.07.8.24.1.27-.02 1.1-1.88 3.62l-.83 1.1c-1.68 2.2-1.68 2.32.1 4Z/></g><defs><clipPath id="a"><path  d="M0 0h24v24H0z"/></clipPath></defs></svg>